<?xml version="1.0" encoding="utf-8"?>
<!-- created with bpmn-js / http://bpmn.io -->
<!DOCTYPE svg PUBLIC "-//W3C//DTD SVG 1.1//EN" "http://www.w3.org/Graphics/SVG/1.1/DTD/svg11.dtd">
<svg xmlns="http://www.w3.org/2000/svg" xmlns:xlink="http://www.w3.org/1999/xlink" width="1538" height="810" viewBox="-9.0 -9.0 1538.0 810.0" version="1.1"><style>text,tspan{fill:#e2e8f0 !important}text{font-family:ui-monospace,Menlo,Consolas,"DejaVu Sans Mono",monospace}</style><rect x="-9.0" y="-9.0" width="1538.0" height="810.0" rx="12" fill="#050814"/><g class="djs-group"><g class="djs-element djs-shape" data-element-id="Part_dir" style="display: block;" transform="matrix(1 0 0 1 20 20)"><g class="djs-visual"><rect x="0" y="0" width="1480" height="140" rx="0" ry="0" style="stroke-linecap: round; stroke-linejoin: round; stroke: rgb(51, 65, 85); stroke-width: 1.5px; fill: rgb(10, 16, 32); fill-opacity: 0.95;"/><path style="fill: none; stroke-linecap: round; stroke-linejoin: round; stroke: rgb(51, 65, 85); stroke-width: 1.5px;" d="M30,0L30,140"/><text lineHeight="1.2" class="djs-label" style="font-family: 'JetBrains Mono', ui-monospace, Consolas, 'Courier New', monospace; font-size: 11px; font-weight: normal; fill: rgb(51, 65, 85);" transform="matrix(-1.83697e-16 -1 1 -1.83697e-16 0 140)"><tspan x="42.78125" y="18.3">Dirección</tspan></text></g><rect class="djs-hit djs-hit-all" x="0" y="0" width="1480" height="140" style="fill: none; stroke-opacity: 0; stroke: white; stroke-width: 15px;"/><rect x="-5" y="-5" rx="4" width="1490" height="150" class="djs-outline" style="fill: none;"/></g><g class="djs-children"><g class="djs-group"><g class="djs-element djs-shape" data-element-id="d_s" style="display: block;" transform="matrix(1 0 0 1 152 72)"><g class="djs-visual"><circle cx="18" cy="18" r="18" style="stroke-linecap: round; stroke-linejoin: round; stroke: rgb(245, 165, 36); stroke-width: 2px; fill: rgb(43, 33, 20); fill-opacity: 0.95;"/></g><rect class="djs-hit djs-hit-all" x="0" y="0" width="36" height="36" style="fill: none; stroke-opacity: 0; stroke: white; stroke-width: 15px;"/><circle cx="18" cy="18" r="23" class="djs-outline" style="fill: none;"/></g></g><g class="djs-group"><g class="djs-element djs-shape" data-element-id="d_s_label" style="display: block;" transform="matrix(1 0 0 1 146 112)"><g class="djs-visual"><text lineHeight="1.2" class="djs-label" style="font-family: 'JetBrains Mono', ui-monospace, Consolas, 'Courier New', monospace; font-size: 10px; font-weight: normal; fill: rgb(245, 165, 36);"><tspan x="0" y="9">Metas del </tspan><tspan x="2.2490234375" y="21">servicio</tspan></text></g><rect class="djs-hit djs-hit-all" x="0" y="0" width="49" height="24" style="fill: none; stroke-opacity: 0; stroke: white; stroke-width: 15px;"/><rect x="-5" y="-5" rx="4" width="59" height="34" class="djs-outline" style="fill: none;"/></g></g><g class="djs-group"><g class="djs-element djs-shape" data-element-id="d_t1" style="display: block;" transform="matrix(1 0 0 1 261 55)"><g class="djs-visual"><rect x="0" y="0" width="118" height="70" rx="10" ry="10" style="stroke-linecap: round; stroke-linejoin: round; stroke: rgb(245, 165, 36); stroke-width: 2px; fill: rgb(43, 33, 20); fill-opacity: 0.95;"/><text lineHeight="1.2" class="djs-label" style="font-family: 'JetBrains Mono', ui-monospace, Consolas, 'Courier New', monospace; font-size: 11px; font-weight: normal; fill: rgb(245, 165, 36);"><tspan x="7.5859375" y="25.1">Definir objetivos</tspan><tspan x="19.6875" y="38.3">de servicio y </tspan><tspan x="31.78125" y="51.5">contratos</tspan></text></g><rect class="djs-hit djs-hit-all" x="0" y="0" width="118" height="70" style="fill: none; stroke-opacity: 0; stroke: white; stroke-width: 15px;"/><rect x="-5" y="-5" rx="14" width="128" height="80" class="djs-outline" style="fill: none;"/></g></g><g class="djs-group"><g class="djs-element djs-shape" data-element-id="d_w" style="display: block;" transform="matrix(1 0 0 1 1052 72)"><g class="djs-visual"><circle cx="18" cy="18" r="18" style="stroke-linecap: round; stroke-linejoin: round; stroke: rgb(245, 165, 36); stroke-width: 1.5px; fill: rgb(43, 33, 20); fill-opacity: 0.95;"/><circle cx="18" cy="18" r="15" style="stroke-linecap: round; stroke-linejoin: round; stroke: rgb(245, 165, 36); stroke-width: 1.5px; fill: none;"/><path d="m 8.459999999999999,11.34 l 0,12.6 l 18.900000000000002,0 l 0,-12.6 z l 9.450000000000001,5.4 l 9.450000000000001,-5.4" style="fill: rgb(43, 33, 20); stroke-linecap: round; stroke-linejoin: round; stroke: rgb(245, 165, 36); stroke-width: 1px;"/></g><rect class="djs-hit djs-hit-all" x="0" y="0" width="36" height="36" style="fill: none; stroke-opacity: 0; stroke: white; stroke-width: 15px;"/><circle cx="18" cy="18" r="23" class="djs-outline" style="fill: none;"/></g></g><g class="djs-group"><g class="djs-element djs-shape" data-element-id="d_w_label" style="display: block;" transform="matrix(1 0 0 1 1040 40)"><g class="djs-visual"><text lineHeight="1.2" class="djs-label" style="font-family: 'JetBrains Mono', ui-monospace, Consolas, 'Courier New', monospace; font-size: 10px; font-weight: normal; fill: rgb(245, 165, 36);"><tspan x="0" y="9">Indicadores </tspan><tspan x="5.5" y="21">recibidos</tspan></text></g><rect class="djs-hit djs-hit-all" x="0" y="0" width="61" height="24" style="fill: none; stroke-opacity: 0; stroke: white; stroke-width: 15px;"/><rect x="-5" y="-5" rx="4" width="71" height="34" class="djs-outline" style="fill: none;"/></g></g><g class="djs-group"><g class="djs-element djs-shape" data-element-id="d_t2" style="display: block;" transform="matrix(1 0 0 1 1161 55)"><g class="djs-visual"><rect x="0" y="0" width="118" height="70" rx="10" ry="10" style="stroke-linecap: round; stroke-linejoin: round; stroke: rgb(245, 165, 36); stroke-width: 2px; fill: rgb(43, 33, 20); fill-opacity: 0.95;"/><text lineHeight="1.2" class="djs-label" style="font-family: 'JetBrains Mono', ui-monospace, Consolas, 'Courier New', monospace; font-size: 11px; font-weight: normal; fill: rgb(245, 165, 36);"><tspan x="37.828125" y="31.7">Revisar </tspan><tspan x="25.734375" y="44.9">indicadores</tspan></text></g><rect class="djs-hit djs-hit-all" x="0" y="0" width="118" height="70" style="fill: none; stroke-opacity: 0; stroke: white; stroke-width: 15px;"/><rect x="-5" y="-5" rx="14" width="128" height="80" class="djs-outline" style="fill: none;"/></g></g><g class="djs-group"><g class="djs-element djs-shape" data-element-id="d_e" style="display: block;" transform="matrix(1 0 0 1 1352 72)"><g class="djs-visual"><circle cx="18" cy="18" r="18" style="stroke-linecap: round; stroke-linejoin: round; stroke: rgb(245, 165, 36); stroke-width: 4px; fill: rgb(43, 33, 20); fill-opacity: 0.95;"/></g><rect class="djs-hit djs-hit-all" x="0" y="0" width="36" height="36" style="fill: none; stroke-opacity: 0; stroke: white; stroke-width: 15px;"/><circle cx="18" cy="18" r="24" class="djs-outline" style="fill: none;"/></g></g><g class="djs-group"><g class="djs-element djs-shape" data-element-id="d_e_label" style="display: block;" transform="matrix(1 0 0 1 1331 112)"><g class="djs-visual"><text lineHeight="1.2" class="djs-label" style="font-family: 'JetBrains Mono', ui-monospace, Consolas, 'Courier New', monospace; font-size: 10px; font-weight: normal; fill: rgb(245, 165, 36);"><tspan x="0" y="9">Ciclo revisado</tspan></text></g><rect class="djs-hit djs-hit-all" x="0" y="0" width="78" height="12" style="fill: none; stroke-opacity: 0; stroke: white; stroke-width: 15px;"/><rect x="-5" y="-5" rx="4" width="88" height="22" class="djs-outline" style="fill: none;"/></g></g><g class="djs-group"><g class="djs-element djs-connection" data-element-id="Flow_dir_0" style="display: block;"><g class="djs-visual"><defs><marker id="marker-ei6ckt5w8mew8q0f8ylptzr4a" viewBox="0 0 20 20" refX="11" refY="10" markerWidth="10" markerHeight="10" orient="auto"><path d="M 1 5 L 11 10 L 1 15 Z" style="stroke-linecap: round; stroke-linejoin: round; stroke: rgb(203, 213, 225); stroke-width: 1px; fill: rgb(203, 213, 225);"/></marker></defs><path data-corner-radius="5" style="fill: none; stroke-linecap: round; stroke-linejoin: round; stroke: rgb(203, 213, 225); stroke-width: 2px; marker-end: url('#marker-ei6ckt5w8mew8q0f8ylptzr4a');" d="M188,90L261,90"/></g><rect x="183" y="85" rx="4" width="83" height="10" class="djs-outline" style="fill: none;"/><path d="M188,90L261,90" class="djs-hit djs-hit-stroke" style="fill: none; stroke-opacity: 0; stroke: white; stroke-width: 15px;"/></g></g><g class="djs-group"><g class="djs-element djs-connection" data-element-id="Flow_dir_1" style="display: block;"><g class="djs-visual"><defs><marker id="marker-58fxkly4uzfo820f5714smfoc" viewBox="0 0 20 20" refX="11" refY="10" markerWidth="10" markerHeight="10" orient="auto"><path d="M 1 5 L 11 10 L 1 15 Z" style="stroke-linecap: round; stroke-linejoin: round; stroke: rgb(203, 213, 225); stroke-width: 1px; fill: rgb(203, 213, 225);"/></marker></defs><path data-corner-radius="5" style="fill: none; stroke-linecap: round; stroke-linejoin: round; stroke: rgb(203, 213, 225); stroke-width: 2px; marker-end: url('#marker-58fxkly4uzfo820f5714smfoc');" d="M379,90L1052,90"/></g><rect x="374" y="85" rx="4" width="683" height="10" class="djs-outline" style="fill: none;"/><path d="M379,90L1052,90" class="djs-hit djs-hit-stroke" style="fill: none; stroke-opacity: 0; stroke: white; stroke-width: 15px;"/></g></g><g class="djs-group"><g class="djs-element djs-connection" data-element-id="Flow_dir_2" style="display: block;"><g class="djs-visual"><defs><marker id="marker-1eykfkcdjolf51yir6e64pnzc" viewBox="0 0 20 20" refX="11" refY="10" markerWidth="10" markerHeight="10" orient="auto"><path d="M 1 5 L 11 10 L 1 15 Z" style="stroke-linecap: round; stroke-linejoin: round; stroke: rgb(203, 213, 225); stroke-width: 1px; fill: rgb(203, 213, 225);"/></marker></defs><path data-corner-radius="5" style="fill: none; stroke-linecap: round; stroke-linejoin: round; stroke: rgb(203, 213, 225); stroke-width: 2px; marker-end: url('#marker-1eykfkcdjolf51yir6e64pnzc');" d="M1088,90L1161,90"/></g><rect x="1083" y="85" rx="4" width="83" height="10" class="djs-outline" style="fill: none;"/><path d="M1088,90L1161,90" class="djs-hit djs-hit-stroke" style="fill: none; stroke-opacity: 0; stroke: white; stroke-width: 15px;"/></g></g><g class="djs-group"><g class="djs-element djs-connection" data-element-id="Flow_dir_3" style="display: block;"><g class="djs-visual"><defs><marker id="marker-al3i5vh5wiuylxh687c5se3an" viewBox="0 0 20 20" refX="11" refY="10" markerWidth="10" markerHeight="10" orient="auto"><path d="M 1 5 L 11 10 L 1 15 Z" style="stroke-linecap: round; stroke-linejoin: round; stroke: rgb(203, 213, 225); stroke-width: 1px; fill: rgb(203, 213, 225);"/></marker></defs><path data-corner-radius="5" style="fill: none; stroke-linecap: round; stroke-linejoin: round; stroke: rgb(203, 213, 225); stroke-width: 2px; marker-end: url('#marker-al3i5vh5wiuylxh687c5se3an');" d="M1279,90L1352,90"/></g><rect x="1274" y="85" rx="4" width="83" height="10" class="djs-outline" style="fill: none;"/><path d="M1279,90L1352,90" class="djs-hit djs-hit-stroke" style="fill: none; stroke-opacity: 0; stroke: white; stroke-width: 15px;"/></g></g></g></g><g class="djs-group"><g class="djs-element djs-shape" data-element-id="Part_core" style="display: block;" transform="matrix(1 0 0 1 20 224)"><g class="djs-visual"><rect x="0" y="0" width="1480" height="140" rx="0" ry="0" style="stroke-linecap: round; stroke-linejoin: round; stroke: rgb(51, 65, 85); stroke-width: 1.5px; fill: rgb(10, 16, 32); fill-opacity: 0.95;"/><path style="fill: none; stroke-linecap: round; stroke-linejoin: round; stroke: rgb(51, 65, 85); stroke-width: 1.5px;" d="M30,0L30,140"/><text lineHeight="1.2" class="djs-label" style="font-family: 'JetBrains Mono', ui-monospace, Consolas, 'Courier New', monospace; font-size: 11px; font-weight: normal; fill: rgb(51, 65, 85);" transform="matrix(-1.83697e-16 -1 1 -1.83697e-16 0 140)"><tspan x="0.4453125" y="18.3">Operación de transporte</tspan></text></g><rect class="djs-hit djs-hit-all" x="0" y="0" width="1480" height="140" style="fill: none; stroke-opacity: 0; stroke: white; stroke-width: 15px;"/><rect x="-5" y="-5" rx="4" width="1490" height="150" class="djs-outline" style="fill: none;"/></g><g class="djs-children"><g class="djs-group"><g class="djs-element djs-shape" data-element-id="o_s" style="display: block;" transform="matrix(1 0 0 1 302 276)"><g class="djs-visual"><circle cx="18" cy="18" r="18" style="stroke-linecap: round; stroke-linejoin: round; stroke: rgb(245, 165, 36); stroke-width: 2px; fill: rgb(43, 33, 20); fill-opacity: 0.95;"/><path d="m 8.459999999999999,11.34 l 0,12.6 l 18.900000000000002,0 l 0,-12.6 z l 9.450000000000001,5.4 l 9.450000000000001,-5.4" style="fill: rgb(43, 33, 20); stroke-linecap: round; stroke-linejoin: round; stroke: rgb(245, 165, 36); stroke-width: 1px;"/></g><rect class="djs-hit djs-hit-all" x="0" y="0" width="36" height="36" style="fill: none; stroke-opacity: 0; stroke: white; stroke-width: 15px;"/><circle cx="18" cy="18" r="23" class="djs-outline" style="fill: none;"/></g></g><g class="djs-group"><g class="djs-element djs-shape" data-element-id="o_s_label" style="display: block;" transform="matrix(1 0 0 1 295 316)"><g class="djs-visual"><text lineHeight="1.2" class="djs-label" style="font-family: 'JetBrains Mono', ui-monospace, Consolas, 'Courier New', monospace; font-size: 10px; font-weight: normal; fill: rgb(245, 165, 36);"><tspan x="0" y="9">Objetivos </tspan><tspan x="0" y="21">recibidos</tspan></text></g><rect class="djs-hit djs-hit-all" x="0" y="0" width="50" height="24" style="fill: none; stroke-opacity: 0; stroke: white; stroke-width: 15px;"/><rect x="-5" y="-5" rx="4" width="60" height="34" class="djs-outline" style="fill: none;"/></g></g><g class="djs-group"><g class="djs-element djs-shape" data-element-id="o_1" style="display: block;" transform="matrix(1 0 0 1 411 259)"><g class="djs-visual"><rect x="0" y="0" width="118" height="70" rx="10" ry="10" style="stroke-linecap: round; stroke-linejoin: round; stroke: rgb(245, 165, 36); stroke-width: 2px; fill: rgb(43, 33, 20); fill-opacity: 0.95;"/><text lineHeight="1.2" class="djs-label" style="font-family: 'JetBrains Mono', ui-monospace, Consolas, 'Courier New', monospace; font-size: 11px; font-weight: normal; fill: rgb(245, 165, 36);"><tspan x="25.734375" y="25.1">Contratar y </tspan><tspan x="31.78125" y="38.3">registrar </tspan><tspan x="31.78125" y="51.5">pasajeros</tspan></text><rect x="0" y="0" width="14" height="14" rx="0" ry="0" style="stroke-linecap: round; stroke-linejoin: round; stroke: rgb(245, 165, 36); stroke-width: 1px; fill: rgb(43, 33, 20);" transform="matrix(1 0 0 1 51.5 50)"/><path data-marker="sub-process" d="m51.5,50 m 7,2 l 0,10 m -5,-5 l 10,0" style="fill: rgb(43, 33, 20); stroke-linecap: round; stroke-linejoin: round; stroke: rgb(245, 165, 36); stroke-width: 2px;"/></g><rect class="djs-hit djs-hit-all" x="0" y="0" width="118" height="70" style="fill: none; stroke-opacity: 0; stroke: white; stroke-width: 15px;"/><rect x="-5" y="-5" rx="14" width="128" height="80" class="djs-outline" style="fill: none;"/></g></g><g class="djs-group"><g class="djs-element djs-shape" data-element-id="o_2" style="display: block;" transform="matrix(1 0 0 1 561 259)"><g class="djs-visual"><rect x="0" y="0" width="118" height="70" rx="10" ry="10" style="stroke-linecap: round; stroke-linejoin: round; stroke: rgb(245, 165, 36); stroke-width: 2px; fill: rgb(43, 33, 20); fill-opacity: 0.95;"/><text lineHeight="1.2" class="djs-label" style="font-family: 'JetBrains Mono', ui-monospace, Consolas, 'Courier New', monospace; font-size: 11px; font-weight: normal; fill: rgb(245, 165, 36);"><tspan x="10.6171875" y="31.7">Planificar rutas </tspan><tspan x="25.734375" y="44.9">y servicios</tspan></text><rect x="0" y="0" width="14" height="14" rx="0" ry="0" style="stroke-linecap: round; stroke-linejoin: round; stroke: rgb(245, 165, 36); stroke-width: 1px; fill: rgb(43, 33, 20);" transform="matrix(1 0 0 1 51.5 50)"/><path data-marker="sub-process" d="m51.5,50 m 7,2 l 0,10 m -5,-5 l 10,0" style="fill: rgb(43, 33, 20); stroke-linecap: round; stroke-linejoin: round; stroke: rgb(245, 165, 36); stroke-width: 2px;"/></g><rect class="djs-hit djs-hit-all" x="0" y="0" width="118" height="70" style="fill: none; stroke-opacity: 0; stroke: white; stroke-width: 15px;"/><rect x="-5" y="-5" rx="14" width="128" height="80" class="djs-outline" style="fill: none;"/></g></g><g class="djs-group"><g class="djs-element djs-shape" data-element-id="o_3" style="display: block;" transform="matrix(1 0 0 1 711 259)"><g class="djs-visual"><rect x="0" y="0" width="118" height="70" rx="10" ry="10" style="stroke-linecap: round; stroke-linejoin: round; stroke: rgb(245, 165, 36); stroke-width: 2px; fill: rgb(43, 33, 20); fill-opacity: 0.95;"/><text lineHeight="1.2" class="djs-label" style="font-family: 'JetBrains Mono', ui-monospace, Consolas, 'Courier New', monospace; font-size: 11px; font-weight: normal; fill: rgb(245, 165, 36);"><tspan x="28.7578125" y="31.7">Ejecutar y </tspan><tspan x="7.5859375" y="44.9">supervisar viajes</tspan></text><rect x="0" y="0" width="14" height="14" rx="0" ry="0" style="stroke-linecap: round; stroke-linejoin: round; stroke: rgb(245, 165, 36); stroke-width: 1px; fill: rgb(43, 33, 20);" transform="matrix(1 0 0 1 51.5 50)"/><path data-marker="sub-process" d="m51.5,50 m 7,2 l 0,10 m -5,-5 l 10,0" style="fill: rgb(43, 33, 20); stroke-linecap: round; stroke-linejoin: round; stroke: rgb(245, 165, 36); stroke-width: 2px;"/></g><rect class="djs-hit djs-hit-all" x="0" y="0" width="118" height="70" style="fill: none; stroke-opacity: 0; stroke: white; stroke-width: 15px;"/><rect x="-5" y="-5" rx="14" width="128" height="80" class="djs-outline" style="fill: none;"/></g></g><g class="djs-group"><g class="djs-element djs-shape" data-element-id="o_4" style="display: block;" transform="matrix(1 0 0 1 861 259)"><g class="djs-visual"><rect x="0" y="0" width="118" height="70" rx="10" ry="10" style="stroke-linecap: round; stroke-linejoin: round; stroke: rgb(245, 165, 36); stroke-width: 2px; fill: rgb(43, 33, 20); fill-opacity: 0.95;"/><text lineHeight="1.2" class="djs-label" style="font-family: 'JetBrains Mono', ui-monospace, Consolas, 'Courier New', monospace; font-size: 11px; font-weight: normal; fill: rgb(245, 165, 36);"><tspan x="37.828125" y="31.7">Evaluar </tspan><tspan x="22.7109375" y="44.9">cumplimiento</tspan></text><rect x="0" y="0" width="14" height="14" rx="0" ry="0" style="stroke-linecap: round; stroke-linejoin: round; stroke: rgb(245, 165, 36); stroke-width: 1px; fill: rgb(43, 33, 20);" transform="matrix(1 0 0 1 51.5 50)"/><path data-marker="sub-process" d="m51.5,50 m 7,2 l 0,10 m -5,-5 l 10,0" style="fill: rgb(43, 33, 20); stroke-linecap: round; stroke-linejoin: round; stroke: rgb(245, 165, 36); stroke-width: 2px;"/></g><rect class="djs-hit djs-hit-all" x="0" y="0" width="118" height="70" style="fill: none; stroke-opacity: 0; stroke: white; stroke-width: 15px;"/><rect x="-5" y="-5" rx="14" width="128" height="80" class="djs-outline" style="fill: none;"/></g></g><g class="djs-group"><g class="djs-element djs-shape" data-element-id="o_e" style="display: block;" transform="matrix(1 0 0 1 1052 276)"><g class="djs-visual"><circle cx="18" cy="18" r="18" style="stroke-linecap: round; stroke-linejoin: round; stroke: rgb(245, 165, 36); stroke-width: 4px; fill: rgb(43, 33, 20); fill-opacity: 0.95;"/><path d="m 8.459999999999999,11.34 l 0,12.6 l 18.900000000000002,0 l 0,-12.6 z l 9.450000000000001,5.4 l 9.450000000000001,-5.4" style="fill: rgb(245, 165, 36); stroke-linecap: round; stroke-linejoin: round; stroke: rgb(43, 33, 20); stroke-width: 1px;"/></g><rect class="djs-hit djs-hit-all" x="0" y="0" width="36" height="36" style="fill: none; stroke-opacity: 0; stroke: white; stroke-width: 15px;"/><circle cx="18" cy="18" r="24" class="djs-outline" style="fill: none;"/></g></g><g class="djs-group"><g class="djs-element djs-shape" data-element-id="o_e_label" style="display: block;" transform="matrix(1 0 0 1 1040 316)"><g class="djs-visual"><text lineHeight="1.2" class="djs-label" style="font-family: 'JetBrains Mono', ui-monospace, Consolas, 'Courier New', monospace; font-size: 10px; font-weight: normal; fill: rgb(245, 165, 36);"><tspan x="0" y="9">Indicadores </tspan><tspan x="8.25" y="21">enviados</tspan></text></g><rect class="djs-hit djs-hit-all" x="0" y="0" width="61" height="24" style="fill: none; stroke-opacity: 0; stroke: white; stroke-width: 15px;"/><rect x="-5" y="-5" rx="4" width="71" height="34" class="djs-outline" style="fill: none;"/></g></g><g class="djs-group"><g class="djs-element djs-connection" data-element-id="Flow_core_0" style="display: block;"><g class="djs-visual"><defs><marker id="marker-3ke6csmtic2c5a9fkicmtoyg9" viewBox="0 0 20 20" refX="11" refY="10" markerWidth="10" markerHeight="10" orient="auto"><path d="M 1 5 L 11 10 L 1 15 Z" style="stroke-linecap: round; stroke-linejoin: round; stroke: rgb(203, 213, 225); stroke-width: 1px; fill: rgb(203, 213, 225);"/></marker></defs><path data-corner-radius="5" style="fill: none; stroke-linecap: round; stroke-linejoin: round; stroke: rgb(203, 213, 225); stroke-width: 2px; marker-end: url('#marker-3ke6csmtic2c5a9fkicmtoyg9');" d="M338,294L411,294"/></g><rect x="333" y="289" rx="4" width="83" height="10" class="djs-outline" style="fill: none;"/><path d="M338,294L411,294" class="djs-hit djs-hit-stroke" style="fill: none; stroke-opacity: 0; stroke: white; stroke-width: 15px;"/></g></g><g class="djs-group"><g class="djs-element djs-connection" data-element-id="Flow_core_1" style="display: block;"><g class="djs-visual"><defs><marker id="marker-14m7ihcyw0dld3rqprqrsrnmk" viewBox="0 0 20 20" refX="11" refY="10" markerWidth="10" markerHeight="10" orient="auto"><path d="M 1 5 L 11 10 L 1 15 Z" style="stroke-linecap: round; stroke-linejoin: round; stroke: rgb(203, 213, 225); stroke-width: 1px; fill: rgb(203, 213, 225);"/></marker></defs><path data-corner-radius="5" style="fill: none; stroke-linecap: round; stroke-linejoin: round; stroke: rgb(203, 213, 225); stroke-width: 2px; marker-end: url('#marker-14m7ihcyw0dld3rqprqrsrnmk');" d="M529,294L561,294"/></g><rect x="524" y="289" rx="4" width="42" height="10" class="djs-outline" style="fill: none;"/><path d="M529,294L561,294" class="djs-hit djs-hit-stroke" style="fill: none; stroke-opacity: 0; stroke: white; stroke-width: 15px;"/></g></g><g class="djs-group"><g class="djs-element djs-connection" data-element-id="Flow_core_2" style="display: block;"><g class="djs-visual"><defs><marker id="marker-8ek2vxn3kryzz3hp02w213bsj" viewBox="0 0 20 20" refX="11" refY="10" markerWidth="10" markerHeight="10" orient="auto"><path d="M 1 5 L 11 10 L 1 15 Z" style="stroke-linecap: round; stroke-linejoin: round; stroke: rgb(203, 213, 225); stroke-width: 1px; fill: rgb(203, 213, 225);"/></marker></defs><path data-corner-radius="5" style="fill: none; stroke-linecap: round; stroke-linejoin: round; stroke: rgb(203, 213, 225); stroke-width: 2px; marker-end: url('#marker-8ek2vxn3kryzz3hp02w213bsj');" d="M679,294L711,294"/></g><rect x="674" y="289" rx="4" width="42" height="10" class="djs-outline" style="fill: none;"/><path d="M679,294L711,294" class="djs-hit djs-hit-stroke" style="fill: none; stroke-opacity: 0; stroke: white; stroke-width: 15px;"/></g></g><g class="djs-group"><g class="djs-element djs-connection" data-element-id="Flow_core_3" style="display: block;"><g class="djs-visual"><defs><marker id="marker-1pmtnyhtt06lyqknwlslkpyzg" viewBox="0 0 20 20" refX="11" refY="10" markerWidth="10" markerHeight="10" orient="auto"><path d="M 1 5 L 11 10 L 1 15 Z" style="stroke-linecap: round; stroke-linejoin: round; stroke: rgb(203, 213, 225); stroke-width: 1px; fill: rgb(203, 213, 225);"/></marker></defs><path data-corner-radius="5" style="fill: none; stroke-linecap: round; stroke-linejoin: round; stroke: rgb(203, 213, 225); stroke-width: 2px; marker-end: url('#marker-1pmtnyhtt06lyqknwlslkpyzg');" d="M829,294L861,294"/></g><rect x="824" y="289" rx="4" width="42" height="10" class="djs-outline" style="fill: none;"/><path d="M829,294L861,294" class="djs-hit djs-hit-stroke" style="fill: none; stroke-opacity: 0; stroke: white; stroke-width: 15px;"/></g></g><g class="djs-group"><g class="djs-element djs-connection" data-element-id="Flow_core_4" style="display: block;"><g class="djs-visual"><defs><marker id="marker-dyb77v6i15vbn32rsmh0bds21" viewBox="0 0 20 20" refX="11" refY="10" markerWidth="10" markerHeight="10" orient="auto"><path d="M 1 5 L 11 10 L 1 15 Z" style="stroke-linecap: round; stroke-linejoin: round; stroke: rgb(203, 213, 225); stroke-width: 1px; fill: rgb(203, 213, 225);"/></marker></defs><path data-corner-radius="5" style="fill: none; stroke-linecap: round; stroke-linejoin: round; stroke: rgb(203, 213, 225); stroke-width: 2px; marker-end: url('#marker-dyb77v6i15vbn32rsmh0bds21');" d="M979,294L1052,294"/></g><rect x="974" y="289" rx="4" width="83" height="10" class="djs-outline" style="fill: none;"/><path d="M979,294L1052,294" class="djs-hit djs-hit-stroke" style="fill: none; stroke-opacity: 0; stroke: white; stroke-width: 15px;"/></g></g></g></g><g class="djs-group"><g class="djs-element djs-shape" data-element-id="Part_cont" style="display: block;" transform="matrix(1 0 0 1 20 428)"><g class="djs-visual"><rect x="0" y="0" width="1480" height="140" rx="0" ry="0" style="stroke-linecap: round; stroke-linejoin: round; stroke: rgb(51, 65, 85); stroke-width: 1.5px; fill: rgb(10, 16, 32); fill-opacity: 0.95;"/><path style="fill: none; stroke-linecap: round; stroke-linejoin: round; stroke: rgb(51, 65, 85); stroke-width: 1.5px;" d="M30,0L30,140"/><text lineHeight="1.2" class="djs-label" style="font-family: 'JetBrains Mono', ui-monospace, Consolas, 'Courier New', monospace; font-size: 11px; font-weight: normal; fill: rgb(51, 65, 85);" transform="matrix(-1.83697e-16 -1 1 -1.83697e-16 0 140)"><tspan x="0.4453125" y="18.3">Continuidad operacional</tspan></text></g><rect class="djs-hit djs-hit-all" x="0" y="0" width="1480" height="140" style="fill: none; stroke-opacity: 0; stroke: white; stroke-width: 15px;"/><rect x="-5" y="-5" rx="4" width="1490" height="150" class="djs-outline" style="fill: none;"/></g><g class="djs-children"><g class="djs-group"><g class="djs-element djs-shape" data-element-id="c_1" style="display: block;" transform="matrix(1 0 0 1 411 463)"><g class="djs-visual"><rect x="0" y="0" width="118" height="70" rx="10" ry="10" style="stroke-linecap: round; stroke-linejoin: round; stroke: rgb(245, 165, 36); stroke-width: 2px; fill: rgb(43, 33, 20); fill-opacity: 0.95;"/><text lineHeight="1.2" class="djs-label" style="font-family: 'JetBrains Mono', ui-monospace, Consolas, 'Courier New', monospace; font-size: 11px; font-weight: normal; fill: rgb(245, 165, 36);"><tspan x="16.6640625" y="38.3">Mantener flota</tspan></text><rect x="0" y="0" width="14" height="14" rx="0" ry="0" style="stroke-linecap: round; stroke-linejoin: round; stroke: rgb(245, 165, 36); stroke-width: 1px; fill: rgb(43, 33, 20);" transform="matrix(1 0 0 1 51.5 50)"/><path data-marker="sub-process" d="m51.5,50 m 7,2 l 0,10 m -5,-5 l 10,0" style="fill: rgb(43, 33, 20); stroke-linecap: round; stroke-linejoin: round; stroke: rgb(245, 165, 36); stroke-width: 2px;"/></g><rect class="djs-hit djs-hit-all" x="0" y="0" width="118" height="70" style="fill: none; stroke-opacity: 0; stroke: white; stroke-width: 15px;"/><rect x="-5" y="-5" rx="14" width="128" height="80" class="djs-outline" style="fill: none;"/></g></g><g class="djs-group"><g class="djs-element djs-shape" data-element-id="c_2" style="display: block;" transform="matrix(1 0 0 1 561 463)"><g class="djs-visual"><rect x="0" y="0" width="118" height="70" rx="10" ry="10" style="stroke-linecap: round; stroke-linejoin: round; stroke: rgb(245, 165, 36); stroke-width: 2px; fill: rgb(43, 33, 20); fill-opacity: 0.95;"/><text lineHeight="1.2" class="djs-label" style="font-family: 'JetBrains Mono', ui-monospace, Consolas, 'Courier New', monospace; font-size: 11px; font-weight: normal; fill: rgb(245, 165, 36);"><tspan x="31.78125" y="31.7">Controlar </tspan><tspan x="25.734375" y="44.9">combustible</tspan></text><rect x="0" y="0" width="14" height="14" rx="0" ry="0" style="stroke-linecap: round; stroke-linejoin: round; stroke: rgb(245, 165, 36); stroke-width: 1px; fill: rgb(43, 33, 20);" transform="matrix(1 0 0 1 51.5 50)"/><path data-marker="sub-process" d="m51.5,50 m 7,2 l 0,10 m -5,-5 l 10,0" style="fill: rgb(43, 33, 20); stroke-linecap: round; stroke-linejoin: round; stroke: rgb(245, 165, 36); stroke-width: 2px;"/></g><rect class="djs-hit djs-hit-all" x="0" y="0" width="118" height="70" style="fill: none; stroke-opacity: 0; stroke: white; stroke-width: 15px;"/><rect x="-5" y="-5" rx="14" width="128" height="80" class="djs-outline" style="fill: none;"/></g></g><g class="djs-group"><g class="djs-element djs-shape" data-element-id="c_3" style="display: block;" transform="matrix(1 0 0 1 711 463)"><g class="djs-visual"><rect x="0" y="0" width="118" height="70" rx="10" ry="10" style="stroke-linecap: round; stroke-linejoin: round; stroke: rgb(245, 165, 36); stroke-width: 2px; fill: rgb(43, 33, 20); fill-opacity: 0.95;"/><text lineHeight="1.2" class="djs-label" style="font-family: 'JetBrains Mono', ui-monospace, Consolas, 'Courier New', monospace; font-size: 11px; font-weight: normal; fill: rgb(245, 165, 36);"><tspan x="31.78125" y="31.7">Gestionar </tspan><tspan x="28.7578125" y="44.9">incidentes</tspan></text><rect x="0" y="0" width="14" height="14" rx="0" ry="0" style="stroke-linecap: round; stroke-linejoin: round; stroke: rgb(245, 165, 36); stroke-width: 1px; fill: rgb(43, 33, 20);" transform="matrix(1 0 0 1 51.5 50)"/><path data-marker="sub-process" d="m51.5,50 m 7,2 l 0,10 m -5,-5 l 10,0" style="fill: rgb(43, 33, 20); stroke-linecap: round; stroke-linejoin: round; stroke: rgb(245, 165, 36); stroke-width: 2px;"/></g><rect class="djs-hit djs-hit-all" x="0" y="0" width="118" height="70" style="fill: none; stroke-opacity: 0; stroke: white; stroke-width: 15px;"/><rect x="-5" y="-5" rx="14" width="128" height="80" class="djs-outline" style="fill: none;"/></g></g></g></g><g class="djs-group"><g class="djs-element djs-shape" data-element-id="Part_sop" style="display: block;" transform="matrix(1 0 0 1 20 632)"><g class="djs-visual"><rect x="0" y="0" width="1480" height="140" rx="0" ry="0" style="stroke-linecap: round; stroke-linejoin: round; stroke: rgb(51, 65, 85); stroke-width: 1.5px; fill: rgb(10, 16, 32); fill-opacity: 0.95;"/><path style="fill: none; stroke-linecap: round; stroke-linejoin: round; stroke: rgb(51, 65, 85); stroke-width: 1.5px;" d="M30,0L30,140"/><text lineHeight="1.2" class="djs-label" style="font-family: 'JetBrains Mono', ui-monospace, Consolas, 'Courier New', monospace; font-size: 11px; font-weight: normal; fill: rgb(51, 65, 85);" transform="matrix(-1.83697e-16 -1 1 -1.83697e-16 0 140)"><tspan x="48.828125" y="18.3">Soporte</tspan></text></g><rect class="djs-hit djs-hit-all" x="0" y="0" width="1480" height="140" style="fill: none; stroke-opacity: 0; stroke: white; stroke-width: 15px;"/><rect x="-5" y="-5" rx="4" width="1490" height="150" class="djs-outline" style="fill: none;"/></g><g class="djs-children"><g class="djs-group"><g class="djs-element djs-shape" data-element-id="s_1" style="display: block;" transform="matrix(1 0 0 1 400 667)"><g class="djs-visual"><rect x="0" y="0" width="560" height="70" rx="10" ry="10" style="stroke-linecap: round; stroke-linejoin: round; stroke: rgb(245, 165, 36); stroke-width: 2px; fill: rgb(43, 33, 20); fill-opacity: 0.95;"/><text lineHeight="1.2" class="djs-label" style="font-family: 'JetBrains Mono', ui-monospace, Consolas, 'Courier New', monospace; font-size: 11px; font-weight: normal; fill: rgb(245, 165, 36);"><tspan x="56.2265625" y="38.3">Identidad y acceso, aislamiento por empresa, datos e historial operacional</tspan></text><rect x="0" y="0" width="14" height="14" rx="0" ry="0" style="stroke-linecap: round; stroke-linejoin: round; stroke: rgb(245, 165, 36); stroke-width: 1px; fill: rgb(43, 33, 20);" transform="matrix(1 0 0 1 272.5 50)"/><path data-marker="sub-process" d="m272.5,50 m 7,2 l 0,10 m -5,-5 l 10,0" style="fill: rgb(43, 33, 20); stroke-linecap: round; stroke-linejoin: round; stroke: rgb(245, 165, 36); stroke-width: 2px;"/></g><rect class="djs-hit djs-hit-all" x="0" y="0" width="560" height="70" style="fill: none; stroke-opacity: 0; stroke: white; stroke-width: 15px;"/><rect x="-5" y="-5" rx="14" width="570" height="80" class="djs-outline" style="fill: none;"/></g></g></g></g><g class="djs-group"><g class="djs-element djs-connection" data-element-id="Msg_bpmn00-mapa-de-procesos_0" style="display: block;"><g class="djs-visual"><defs><marker id="marker-dmz5rgfgvnd6o1p14zo9ck7og" viewBox="0 0 20 20" refX="8.5" refY="5" markerWidth="20" markerHeight="20" orient="auto"><path d="m 1 5 l 0 -3 l 7 3 l -7 3 z" style="stroke-linecap: round; stroke-linejoin: round; stroke: rgb(148, 163, 184); stroke-width: 1px; fill: white; stroke-dasharray: 10000, 1;"/></marker><marker id="marker-en3fekkerlqglxh73q5ne673k" viewBox="0 0 20 20" refX="6" refY="6" markerWidth="20" markerHeight="20" orient="auto"><circle cx="6" cy="6" r="3.5" style="stroke-linecap: round; stroke-linejoin: round; stroke: rgb(148, 163, 184); stroke-width: 1px; fill: white; stroke-dasharray: 10000, 1;"/></marker></defs><path data-corner-radius="5" style="fill: none; stroke-linecap: round; stroke-linejoin: round; stroke: rgb(148, 163, 184); stroke-width: 1.5px; marker-end: url('#marker-dmz5rgfgvnd6o1p14zo9ck7og'); marker-start: url('#marker-en3fekkerlqglxh73q5ne673k'); stroke-dasharray: 10, 11;" d="M320,125L320,276"/></g><rect x="315" y="120" rx="4" width="10" height="161" class="djs-outline" style="fill: none;"/><path d="M320,125L320,276" class="djs-hit djs-hit-stroke" style="fill: none; stroke-opacity: 0; stroke: white; stroke-width: 15px;"/></g></g><g class="djs-group"><g class="djs-element djs-shape" data-element-id="Msg_bpmn00-mapa-de-procesos_0_label" style="display: block;" transform="matrix(1 0 0 1 364 193)"><g class="djs-visual"><text lineHeight="1.2" class="djs-label" style="font-family: 'JetBrains Mono', ui-monospace, Consolas, 'Courier New', monospace; font-size: 10px; font-weight: normal; fill: rgb(148, 163, 184);"><tspan x="0" y="9">Objetivos y </tspan><tspan x="5.748046875" y="21">contratos</tspan></text></g><rect class="djs-hit djs-hit-all" x="0" y="0" width="61" height="24" style="fill: none; stroke-opacity: 0; stroke: white; stroke-width: 15px;"/><rect x="-5" y="-5" rx="4" width="71" height="34" class="djs-outline" style="fill: none;"/></g></g><g class="djs-group"><g class="djs-element djs-connection" data-element-id="Msg_bpmn00-mapa-de-procesos_1" style="display: block;"><g class="djs-visual"><defs><marker id="marker-37h7oag81ic9siwzwgmg8hfyt" viewBox="0 0 20 20" refX="8.5" refY="5" markerWidth="20" markerHeight="20" orient="auto"><path d="m 1 5 l 0 -3 l 7 3 l -7 3 z" style="stroke-linecap: round; stroke-linejoin: round; stroke: rgb(148, 163, 184); stroke-width: 1px; fill: white; stroke-dasharray: 10000, 1;"/></marker><marker id="marker-dh0bn17pew5a5q9pvwjgxoisj" viewBox="0 0 20 20" refX="6" refY="6" markerWidth="20" markerHeight="20" orient="auto"><circle cx="6" cy="6" r="3.5" style="stroke-linecap: round; stroke-linejoin: round; stroke: rgb(148, 163, 184); stroke-width: 1px; fill: white; stroke-dasharray: 10000, 1;"/></marker></defs><path data-corner-radius="5" style="fill: none; stroke-linecap: round; stroke-linejoin: round; stroke: rgb(148, 163, 184); stroke-width: 1.5px; marker-end: url('#marker-37h7oag81ic9siwzwgmg8hfyt'); marker-start: url('#marker-dh0bn17pew5a5q9pvwjgxoisj'); stroke-dasharray: 10, 11;" d="M1070,276L1070,108"/></g><rect x="1065" y="103" rx="4" width="10" height="178" class="djs-outline" style="fill: none;"/><path d="M1070,276L1070,108" class="djs-hit djs-hit-stroke" style="fill: none; stroke-opacity: 0; stroke: white; stroke-width: 15px;"/></g></g><g class="djs-group"><g class="djs-element djs-shape" data-element-id="Msg_bpmn00-mapa-de-procesos_1_label" style="display: block;" transform="matrix(1 0 0 1 1083 184)"><g class="djs-visual"><text lineHeight="1.2" class="djs-label" style="font-family: 'JetBrains Mono', ui-monospace, Consolas, 'Courier New', monospace; font-size: 10px; font-weight: normal; fill: rgb(148, 163, 184);"><tspan x="0" y="9">Indicadores</tspan></text></g><rect class="djs-hit djs-hit-all" x="0" y="0" width="61" height="12" style="fill: none; stroke-opacity: 0; stroke: white; stroke-width: 15px;"/><rect x="-5" y="-5" rx="4" width="71" height="22" class="djs-outline" style="fill: none;"/></g></g></svg>