<?xml version="1.0" encoding="utf-8"?>
<!-- created with bpmn-js / http://bpmn.io -->
<!DOCTYPE svg PUBLIC "-//W3C//DTD SVG 1.1//EN" "http://www.w3.org/Graphics/SVG/1.1/DTD/svg11.dtd">
<svg xmlns="http://www.w3.org/2000/svg" xmlns:xlink="http://www.w3.org/1999/xlink" width="1838" height="718" viewBox="-9.0 -9.0 1838.0 718.0" version="1.1"><style>text,tspan{fill:#e2e8f0 !important}text{font-family:ui-monospace,Menlo,Consolas,"DejaVu Sans Mono",monospace}</style><rect x="-9.0" y="-9.0" width="1838.0" height="718.0" rx="12" fill="#050814"/><g class="djs-group"><g class="djs-element djs-shape" data-element-id="Part_cli" style="display: block;" transform="matrix(1 0 0 1 20 20)"><g class="djs-visual"><rect x="0" y="0" width="1780" height="140" rx="0" ry="0" style="stroke-linecap: round; stroke-linejoin: round; stroke: rgb(51, 65, 85); stroke-width: 1.5px; fill: rgb(10, 16, 32); fill-opacity: 0.95;"/><path style="fill: none; stroke-linecap: round; stroke-linejoin: round; stroke: rgb(51, 65, 85); stroke-width: 1.5px;" d="M30,0L30,140"/><text lineHeight="1.2" class="djs-label" style="font-family: 'JetBrains Mono', ui-monospace, Consolas, 'Courier New', monospace; font-size: 11px; font-weight: normal; fill: rgb(51, 65, 85);" transform="matrix(-1.83697e-16 -1 1 -1.83697e-16 0 140)"><tspan x="12.5390625" y="18.3">Cliente contratante</tspan></text></g><rect class="djs-hit djs-hit-all" x="0" y="0" width="1780" height="140" style="fill: none; stroke-opacity: 0; stroke: white; stroke-width: 15px;"/><rect x="-5" y="-5" rx="4" width="1790" height="150" class="djs-outline" style="fill: none;"/></g><g class="djs-children"><g class="djs-group"><g class="djs-element djs-shape" data-element-id="c_s" style="display: block;" transform="matrix(1 0 0 1 152 72)"><g class="djs-visual"><circle cx="18" cy="18" r="18" style="stroke-linecap: round; stroke-linejoin: round; stroke: rgb(100, 116, 139); stroke-width: 2px; fill: rgb(24, 34, 51); fill-opacity: 0.95;"/></g><rect class="djs-hit djs-hit-all" x="0" y="0" width="36" height="36" style="fill: none; stroke-opacity: 0; stroke: white; stroke-width: 15px;"/><circle cx="18" cy="18" r="23" class="djs-outline" style="fill: none;"/></g></g><g class="djs-group"><g class="djs-element djs-shape" data-element-id="c_s_label" style="display: block;" transform="matrix(1 0 0 1 137 112)"><g class="djs-visual"><text lineHeight="1.2" class="djs-label" style="font-family: 'JetBrains Mono', ui-monospace, Consolas, 'Courier New', monospace; font-size: 10px; font-weight: normal; fill: rgb(100, 116, 139);"><tspan x="0" y="9">Necesidad de </tspan><tspan x="5.498046875" y="21">transporte</tspan></text></g><rect class="djs-hit djs-hit-all" x="0" y="0" width="67" height="24" style="fill: none; stroke-opacity: 0; stroke: white; stroke-width: 15px;"/><rect x="-5" y="-5" rx="4" width="77" height="34" class="djs-outline" style="fill: none;"/></g></g><g class="djs-group"><g class="djs-element djs-shape" data-element-id="c_t1" style="display: block;" transform="matrix(1 0 0 1 261 55)"><g class="djs-visual"><rect x="0" y="0" width="118" height="70" rx="10" ry="10" style="stroke-linecap: round; stroke-linejoin: round; stroke: rgb(100, 116, 139); stroke-width: 2px; fill: rgb(24, 34, 51); fill-opacity: 0.95;"/><text lineHeight="1.2" class="djs-label" style="font-family: 'JetBrains Mono', ui-monospace, Consolas, 'Courier New', monospace; font-size: 11px; font-weight: normal; fill: rgb(100, 116, 139);"><tspan x="31.78125" y="31.7">Comunicar </tspan><tspan x="31.78125" y="44.9">necesidad</tspan></text></g><rect class="djs-hit djs-hit-all" x="0" y="0" width="118" height="70" style="fill: none; stroke-opacity: 0; stroke: white; stroke-width: 15px;"/><rect x="-5" y="-5" rx="14" width="128" height="80" class="djs-outline" style="fill: none;"/></g></g><g class="djs-group"><g class="djs-element djs-shape" data-element-id="c_w" style="display: block;" transform="matrix(1 0 0 1 752 72)"><g class="djs-visual"><circle cx="18" cy="18" r="18" style="stroke-linecap: round; stroke-linejoin: round; stroke: rgb(100, 116, 139); stroke-width: 1.5px; fill: rgb(24, 34, 51); fill-opacity: 0.95;"/><circle cx="18" cy="18" r="15" style="stroke-linecap: round; stroke-linejoin: round; stroke: rgb(100, 116, 139); stroke-width: 1.5px; fill: none;"/><path d="m 8.459999999999999,11.34 l 0,12.6 l 18.900000000000002,0 l 0,-12.6 z l 9.450000000000001,5.4 l 9.450000000000001,-5.4" style="fill: rgb(24, 34, 51); stroke-linecap: round; stroke-linejoin: round; stroke: rgb(100, 116, 139); stroke-width: 1px;"/></g><rect class="djs-hit djs-hit-all" x="0" y="0" width="36" height="36" style="fill: none; stroke-opacity: 0; stroke: white; stroke-width: 15px;"/><circle cx="18" cy="18" r="23" class="djs-outline" style="fill: none;"/></g></g><g class="djs-group"><g class="djs-element djs-shape" data-element-id="c_w_label" style="display: block;" transform="matrix(1 0 0 1 740 40)"><g class="djs-visual"><text lineHeight="1.2" class="djs-label" style="font-family: 'JetBrains Mono', ui-monospace, Consolas, 'Courier New', monospace; font-size: 10px; font-weight: normal; fill: rgb(100, 116, 139);"><tspan x="0" y="9">Condiciones </tspan><tspan x="5.5" y="21">recibidas</tspan></text></g><rect class="djs-hit djs-hit-all" x="0" y="0" width="61" height="24" style="fill: none; stroke-opacity: 0; stroke: white; stroke-width: 15px;"/><rect x="-5" y="-5" rx="4" width="71" height="34" class="djs-outline" style="fill: none;"/></g></g><g class="djs-group"><g class="djs-element djs-shape" data-element-id="c_t2" style="display: block;" transform="matrix(1 0 0 1 861 55)"><g class="djs-visual"><rect x="0" y="0" width="118" height="70" rx="10" ry="10" style="stroke-linecap: round; stroke-linejoin: round; stroke: rgb(100, 116, 139); stroke-width: 2px; fill: rgb(24, 34, 51); fill-opacity: 0.95;"/><text lineHeight="1.2" class="djs-label" style="font-family: 'JetBrains Mono', ui-monospace, Consolas, 'Courier New', monospace; font-size: 11px; font-weight: normal; fill: rgb(100, 116, 139);"><tspan x="31.78125" y="31.7">Confirmar </tspan><tspan x="25.734375" y="44.9">condiciones</tspan></text></g><rect class="djs-hit djs-hit-all" x="0" y="0" width="118" height="70" style="fill: none; stroke-opacity: 0; stroke: white; stroke-width: 15px;"/><rect x="-5" y="-5" rx="14" width="128" height="80" class="djs-outline" style="fill: none;"/></g></g><g class="djs-group"><g class="djs-element djs-shape" data-element-id="c_e" style="display: block;" transform="matrix(1 0 0 1 1052 72)"><g class="djs-visual"><circle cx="18" cy="18" r="18" style="stroke-linecap: round; stroke-linejoin: round; stroke: rgb(100, 116, 139); stroke-width: 4px; fill: rgb(24, 34, 51); fill-opacity: 0.95;"/><path d="m 8.459999999999999,11.34 l 0,12.6 l 18.900000000000002,0 l 0,-12.6 z l 9.450000000000001,5.4 l 9.450000000000001,-5.4" style="fill: rgb(100, 116, 139); stroke-linecap: round; stroke-linejoin: round; stroke: rgb(24, 34, 51); stroke-width: 1px;"/></g><rect class="djs-hit djs-hit-all" x="0" y="0" width="36" height="36" style="fill: none; stroke-opacity: 0; stroke: white; stroke-width: 15px;"/><circle cx="18" cy="18" r="24" class="djs-outline" style="fill: none;"/></g></g><g class="djs-group"><g class="djs-element djs-shape" data-element-id="c_e_label" style="display: block;" transform="matrix(1 0 0 1 1043 40)"><g class="djs-visual"><text lineHeight="1.2" class="djs-label" style="font-family: 'JetBrains Mono', ui-monospace, Consolas, 'Courier New', monospace; font-size: 10px; font-weight: normal; fill: rgb(100, 116, 139);"><tspan x="0" y="9">Aceptación </tspan><tspan x="7.7421875" y="21">enviada</tspan></text></g><rect class="djs-hit djs-hit-all" x="0" y="0" width="54" height="24" style="fill: none; stroke-opacity: 0; stroke: white; stroke-width: 15px;"/><rect x="-5" y="-5" rx="4" width="64" height="34" class="djs-outline" style="fill: none;"/></g></g><g class="djs-group"><g class="djs-element djs-connection" data-element-id="Flow_cli_0" style="display: block;"><g class="djs-visual"><defs><marker id="marker-848ipi5ah1hlqnpguhi7nb89y" viewBox="0 0 20 20" refX="11" refY="10" markerWidth="10" markerHeight="10" orient="auto"><path d="M 1 5 L 11 10 L 1 15 Z" style="stroke-linecap: round; stroke-linejoin: round; stroke: rgb(203, 213, 225); stroke-width: 1px; fill: rgb(203, 213, 225);"/></marker></defs><path data-corner-radius="5" style="fill: none; stroke-linecap: round; stroke-linejoin: round; stroke: rgb(203, 213, 225); stroke-width: 2px; marker-end: url('#marker-848ipi5ah1hlqnpguhi7nb89y');" d="M188,90L261,90"/></g><rect x="183" y="85" rx="4" width="83" height="10" class="djs-outline" style="fill: none;"/><path d="M188,90L261,90" class="djs-hit djs-hit-stroke" style="fill: none; stroke-opacity: 0; stroke: white; stroke-width: 15px;"/></g></g><g class="djs-group"><g class="djs-element djs-connection" data-element-id="Flow_cli_1" style="display: block;"><g class="djs-visual"><defs><marker id="marker-4qt3sq1mkplkadpnw9gfqoegj" viewBox="0 0 20 20" refX="11" refY="10" markerWidth="10" markerHeight="10" orient="auto"><path d="M 1 5 L 11 10 L 1 15 Z" style="stroke-linecap: round; stroke-linejoin: round; stroke: rgb(203, 213, 225); stroke-width: 1px; fill: rgb(203, 213, 225);"/></marker></defs><path data-corner-radius="5" style="fill: none; stroke-linecap: round; stroke-linejoin: round; stroke: rgb(203, 213, 225); stroke-width: 2px; marker-end: url('#marker-4qt3sq1mkplkadpnw9gfqoegj');" d="M379,90L752,90"/></g><rect x="374" y="85" rx="4" width="383" height="10" class="djs-outline" style="fill: none;"/><path d="M379,90L752,90" class="djs-hit djs-hit-stroke" style="fill: none; stroke-opacity: 0; stroke: white; stroke-width: 15px;"/></g></g><g class="djs-group"><g class="djs-element djs-connection" data-element-id="Flow_cli_2" style="display: block;"><g class="djs-visual"><defs><marker id="marker-am0kwb81oe22g70vo8b2369z4" viewBox="0 0 20 20" refX="11" refY="10" markerWidth="10" markerHeight="10" orient="auto"><path d="M 1 5 L 11 10 L 1 15 Z" style="stroke-linecap: round; stroke-linejoin: round; stroke: rgb(203, 213, 225); stroke-width: 1px; fill: rgb(203, 213, 225);"/></marker></defs><path data-corner-radius="5" style="fill: none; stroke-linecap: round; stroke-linejoin: round; stroke: rgb(203, 213, 225); stroke-width: 2px; marker-end: url('#marker-am0kwb81oe22g70vo8b2369z4');" d="M788,90L861,90"/></g><rect x="783" y="85" rx="4" width="83" height="10" class="djs-outline" style="fill: none;"/><path d="M788,90L861,90" class="djs-hit djs-hit-stroke" style="fill: none; stroke-opacity: 0; stroke: white; stroke-width: 15px;"/></g></g><g class="djs-group"><g class="djs-element djs-connection" data-element-id="Flow_cli_3" style="display: block;"><g class="djs-visual"><defs><marker id="marker-78sere93y9q5gdbjws8gbtfkw" viewBox="0 0 20 20" refX="11" refY="10" markerWidth="10" markerHeight="10" orient="auto"><path d="M 1 5 L 11 10 L 1 15 Z" style="stroke-linecap: round; stroke-linejoin: round; stroke: rgb(203, 213, 225); stroke-width: 1px; fill: rgb(203, 213, 225);"/></marker></defs><path data-corner-radius="5" style="fill: none; stroke-linecap: round; stroke-linejoin: round; stroke: rgb(203, 213, 225); stroke-width: 2px; marker-end: url('#marker-78sere93y9q5gdbjws8gbtfkw');" d="M979,90L1052,90"/></g><rect x="974" y="85" rx="4" width="83" height="10" class="djs-outline" style="fill: none;"/><path d="M979,90L1052,90" class="djs-hit djs-hit-stroke" style="fill: none; stroke-opacity: 0; stroke: white; stroke-width: 15px;"/></g></g></g></g><g class="djs-group"><g class="djs-element djs-shape" data-element-id="Part_pyme" style="display: block;" transform="matrix(1 0 0 1 20 224)"><g class="djs-visual"><rect x="0" y="0" width="1780" height="252" rx="0" ry="0" style="stroke-linecap: round; stroke-linejoin: round; stroke: rgb(51, 65, 85); stroke-width: 1.5px; fill: rgb(10, 16, 32); fill-opacity: 0.95;"/><path style="fill: none; stroke-linecap: round; stroke-linejoin: round; stroke: rgb(51, 65, 85); stroke-width: 1.5px;" d="M30,0L30,252"/><text lineHeight="1.2" class="djs-label" style="font-family: 'JetBrains Mono', ui-monospace, Consolas, 'Courier New', monospace; font-size: 11px; font-weight: normal; fill: rgb(51, 65, 85);" transform="matrix(-1.83697e-16 -1 1 -1.83697e-16 0 252)"><tspan x="23.1796875" y="11.7">Pyme de transporte (Administración </tspan><tspan x="89.7109375" y="24.9">operacional)</tspan></text></g><rect class="djs-hit djs-hit-all" x="0" y="0" width="1780" height="252" style="fill: none; stroke-opacity: 0; stroke: white; stroke-width: 15px;"/><rect x="-5" y="-5" rx="4" width="1790" height="262" class="djs-outline" style="fill: none;"/></g><g class="djs-children"><g class="djs-group"><g class="djs-element djs-shape" data-element-id="p_s" style="display: block;" transform="matrix(1 0 0 1 302 276)"><g class="djs-visual"><circle cx="18" cy="18" r="18" style="stroke-linecap: round; stroke-linejoin: round; stroke: rgb(240, 86, 111); stroke-width: 2px; fill: rgb(58, 26, 40); fill-opacity: 0.95;"/><path d="m 8.459999999999999,11.34 l 0,12.6 l 18.900000000000002,0 l 0,-12.6 z l 9.450000000000001,5.4 l 9.450000000000001,-5.4" style="fill: rgb(58, 26, 40); stroke-linecap: round; stroke-linejoin: round; stroke: rgb(240, 86, 111); stroke-width: 1px;"/></g><rect class="djs-hit djs-hit-all" x="0" y="0" width="36" height="36" style="fill: none; stroke-opacity: 0; stroke: white; stroke-width: 15px;"/><circle cx="18" cy="18" r="23" class="djs-outline" style="fill: none;"/></g></g><g class="djs-group"><g class="djs-element djs-shape" data-element-id="p_s_label" style="display: block;" transform="matrix(1 0 0 1 295 316)"><g class="djs-visual"><text lineHeight="1.2" class="djs-label" style="font-family: 'JetBrains Mono', ui-monospace, Consolas, 'Courier New', monospace; font-size: 10px; font-weight: normal; fill: rgb(240, 86, 111);"><tspan x="0" y="9">Solicitud </tspan><tspan x="2.75" y="21">recibida</tspan></text></g><rect class="djs-hit djs-hit-all" x="0" y="0" width="50" height="24" style="fill: none; stroke-opacity: 0; stroke: white; stroke-width: 15px;"/><rect x="-5" y="-5" rx="4" width="60" height="34" class="djs-outline" style="fill: none;"/></g></g><g class="djs-group"><g class="djs-element djs-shape" data-element-id="p_t1" style="display: block;" transform="matrix(1 0 0 1 411 259)"><g class="djs-visual"><rect x="0" y="0" width="118" height="70" rx="10" ry="10" style="stroke-linecap: round; stroke-linejoin: round; stroke: rgb(240, 86, 111); stroke-width: 2px; fill: rgb(58, 26, 40); fill-opacity: 0.95;"/><text lineHeight="1.2" class="djs-label" style="font-family: 'JetBrains Mono', ui-monospace, Consolas, 'Courier New', monospace; font-size: 11px; font-weight: normal; fill: rgb(240, 86, 111);"><tspan x="37.828125" y="31.7">Revisar </tspan><tspan x="22.7109375" y="44.9">antecedentes</tspan></text></g><rect class="djs-hit djs-hit-all" x="0" y="0" width="118" height="70" style="fill: none; stroke-opacity: 0; stroke: white; stroke-width: 15px;"/><rect x="-5" y="-5" rx="14" width="128" height="80" class="djs-outline" style="fill: none;"/></g></g><g class="djs-group"><g class="djs-element djs-shape" data-element-id="p_g" style="display: block;" transform="matrix(1 0 0 1 595 269)"><g class="djs-visual"><polygon points="25,0 50,25 25,50 0,25" style="stroke-linecap: round; stroke-linejoin: round; stroke: rgb(240, 86, 111); stroke-width: 2px; fill: rgb(58, 26, 40); fill-opacity: 0.95;"/><path d="m 16,15 7.42857142857143,9.714285714285715 -7.42857142857143,9.714285714285715 3.428571428571429,0 5.714285714285715,-7.464228571428572 5.714285714285715,7.464228571428572 3.428571428571429,0 -7.42857142857143,-9.714285714285715 7.42857142857143,-9.714285714285715 -3.428571428571429,0 -5.714285714285715,7.464228571428572 -5.714285714285715,-7.464228571428572 -3.428571428571429,0 z" style="fill: rgb(240, 86, 111); stroke-linecap: round; stroke-linejoin: round; stroke: rgb(240, 86, 111); stroke-width: 1px;"/></g><rect class="djs-hit djs-hit-all" x="0" y="0" width="50" height="50" style="fill: none; stroke-opacity: 0; stroke: white; stroke-width: 15px;"/><rect x="2" y="2" rx="4" width="46" height="46" class="djs-outline" style="transform-box: fill-box; transform: rotate(45deg); transform-origin: center center; fill: none;"/></g></g><g class="djs-group"><g class="djs-element djs-shape" data-element-id="p_g_label" style="display: block;" transform="matrix(1 0 0 1 584 237)"><g class="djs-visual"><text lineHeight="1.2" class="djs-label" style="font-family: 'JetBrains Mono', ui-monospace, Consolas, 'Courier New', monospace; font-size: 10px; font-weight: normal; fill: rgb(240, 86, 111);"><tspan x="0" y="9">¿Antecedentes </tspan><tspan x="8.25" y="21">completos?</tspan></text></g><rect class="djs-hit djs-hit-all" x="0" y="0" width="72" height="24" style="fill: none; stroke-opacity: 0; stroke: white; stroke-width: 15px;"/><rect x="-5" y="-5" rx="4" width="82" height="34" class="djs-outline" style="fill: none;"/></g></g><g class="djs-group"><g class="djs-element djs-shape" data-element-id="p_t2" style="display: block;" transform="matrix(1 0 0 1 711 259)"><g class="djs-visual"><rect x="0" y="0" width="118" height="70" rx="10" ry="10" style="stroke-linecap: round; stroke-linejoin: round; stroke: rgb(240, 86, 111); stroke-width: 2px; fill: rgb(58, 26, 40); fill-opacity: 0.95;"/><text lineHeight="1.2" class="djs-label" style="font-family: 'JetBrains Mono', ui-monospace, Consolas, 'Courier New', monospace; font-size: 11px; font-weight: normal; fill: rgb(240, 86, 111);"><tspan x="38.328125" y="31.7">Acordar </tspan><tspan x="25.734375" y="44.9">condiciones</tspan></text></g><rect class="djs-hit djs-hit-all" x="0" y="0" width="118" height="70" style="fill: none; stroke-opacity: 0; stroke: white; stroke-width: 15px;"/><rect x="-5" y="-5" rx="14" width="128" height="80" class="djs-outline" style="fill: none;"/></g></g><g class="djs-group"><g class="djs-element djs-shape" data-element-id="p_w" style="display: block;" transform="matrix(1 0 0 1 1052 276)"><g class="djs-visual"><circle cx="18" cy="18" r="18" style="stroke-linecap: round; stroke-linejoin: round; stroke: rgb(240, 86, 111); stroke-width: 1.5px; fill: rgb(58, 26, 40); fill-opacity: 0.95;"/><circle cx="18" cy="18" r="15" style="stroke-linecap: round; stroke-linejoin: round; stroke: rgb(240, 86, 111); stroke-width: 1.5px; fill: none;"/><path d="m 8.459999999999999,11.34 l 0,12.6 l 18.900000000000002,0 l 0,-12.6 z l 9.450000000000001,5.4 l 9.450000000000001,-5.4" style="fill: rgb(58, 26, 40); stroke-linecap: round; stroke-linejoin: round; stroke: rgb(240, 86, 111); stroke-width: 1px;"/></g><rect class="djs-hit djs-hit-all" x="0" y="0" width="36" height="36" style="fill: none; stroke-opacity: 0; stroke: white; stroke-width: 15px;"/><circle cx="18" cy="18" r="23" class="djs-outline" style="fill: none;"/></g></g><g class="djs-group"><g class="djs-element djs-shape" data-element-id="p_w_label" style="display: block;" transform="matrix(1 0 0 1 1043 316)"><g class="djs-visual"><text lineHeight="1.2" class="djs-label" style="font-family: 'JetBrains Mono', ui-monospace, Consolas, 'Courier New', monospace; font-size: 10px; font-weight: normal; fill: rgb(240, 86, 111);"><tspan x="0" y="9">Aceptación </tspan><tspan x="5" y="21">recibida</tspan></text></g><rect class="djs-hit djs-hit-all" x="0" y="0" width="54" height="24" style="fill: none; stroke-opacity: 0; stroke: white; stroke-width: 15px;"/><rect x="-5" y="-5" rx="4" width="64" height="34" class="djs-outline" style="fill: none;"/></g></g><g class="djs-group"><g class="djs-element djs-shape" data-element-id="p_e" style="display: block;" transform="matrix(1 0 0 1 1202 276)"><g class="djs-visual"><circle cx="18" cy="18" r="18" style="stroke-linecap: round; stroke-linejoin: round; stroke: rgb(240, 86, 111); stroke-width: 4px; fill: rgb(58, 26, 40); fill-opacity: 0.95;"/><path d="m 8.459999999999999,11.34 l 0,12.6 l 18.900000000000002,0 l 0,-12.6 z l 9.450000000000001,5.4 l 9.450000000000001,-5.4" style="fill: rgb(240, 86, 111); stroke-linecap: round; stroke-linejoin: round; stroke: rgb(58, 26, 40); stroke-width: 1px;"/></g><rect class="djs-hit djs-hit-all" x="0" y="0" width="36" height="36" style="fill: none; stroke-opacity: 0; stroke: white; stroke-width: 15px;"/><circle cx="18" cy="18" r="24" class="djs-outline" style="fill: none;"/></g></g><g class="djs-group"><g class="djs-element djs-shape" data-element-id="p_e_label" style="display: block;" transform="matrix(1 0 0 1 1198 244)"><g class="djs-visual"><text lineHeight="1.2" class="djs-label" style="font-family: 'JetBrains Mono', ui-monospace, Consolas, 'Courier New', monospace; font-size: 10px; font-weight: normal; fill: rgb(240, 86, 111);"><tspan x="0" y="9">Contrato </tspan><tspan x="0" y="21">aceptado</tspan></text></g><rect class="djs-hit djs-hit-all" x="0" y="0" width="45" height="24" style="fill: none; stroke-opacity: 0; stroke: white; stroke-width: 15px;"/><rect x="-5" y="-5" rx="4" width="55" height="34" class="djs-outline" style="fill: none;"/></g></g><g class="djs-group"><g class="djs-element djs-shape" data-element-id="p_t3" style="display: block;" transform="matrix(1 0 0 1 711 371)"><g class="djs-visual"><rect x="0" y="0" width="118" height="70" rx="10" ry="10" style="stroke-linecap: round; stroke-linejoin: round; stroke: rgb(240, 86, 111); stroke-width: 2px; fill: rgb(58, 26, 40); fill-opacity: 0.95;"/><text lineHeight="1.2" class="djs-label" style="font-family: 'JetBrains Mono', ui-monospace, Consolas, 'Courier New', monospace; font-size: 11px; font-weight: normal; fill: rgb(240, 86, 111);"><tspan x="31.78125" y="31.7">Solicitar </tspan><tspan x="28.7578125" y="44.9">corrección</tspan></text></g><rect class="djs-hit djs-hit-all" x="0" y="0" width="118" height="70" style="fill: none; stroke-opacity: 0; stroke: white; stroke-width: 15px;"/><rect x="-5" y="-5" rx="14" width="128" height="80" class="djs-outline" style="fill: none;"/></g></g><g class="djs-group"><g class="djs-element djs-connection" data-element-id="Flow_pyme_0" style="display: block;"><g class="djs-visual"><defs><marker id="marker-9t3rmrpsbcx4fl9l7jc80ila4" viewBox="0 0 20 20" refX="11" refY="10" markerWidth="10" markerHeight="10" orient="auto"><path d="M 1 5 L 11 10 L 1 15 Z" style="stroke-linecap: round; stroke-linejoin: round; stroke: rgb(203, 213, 225); stroke-width: 1px; fill: rgb(203, 213, 225);"/></marker></defs><path data-corner-radius="5" style="fill: none; stroke-linecap: round; stroke-linejoin: round; stroke: rgb(203, 213, 225); stroke-width: 2px; marker-end: url('#marker-9t3rmrpsbcx4fl9l7jc80ila4');" d="M338,294L411,294"/></g><rect x="333" y="289" rx="4" width="83" height="10" class="djs-outline" style="fill: none;"/><path d="M338,294L411,294" class="djs-hit djs-hit-stroke" style="fill: none; stroke-opacity: 0; stroke: white; stroke-width: 15px;"/></g></g><g class="djs-group"><g class="djs-element djs-connection" data-element-id="Flow_pyme_1" style="display: block;"><g class="djs-visual"><defs><marker id="marker-dif09vu5w20rh7molpfw1ba3g" viewBox="0 0 20 20" refX="11" refY="10" markerWidth="10" markerHeight="10" orient="auto"><path d="M 1 5 L 11 10 L 1 15 Z" style="stroke-linecap: round; stroke-linejoin: round; stroke: rgb(203, 213, 225); stroke-width: 1px; fill: rgb(203, 213, 225);"/></marker></defs><path data-corner-radius="5" style="fill: none; stroke-linecap: round; stroke-linejoin: round; stroke: rgb(203, 213, 225); stroke-width: 2px; marker-end: url('#marker-dif09vu5w20rh7molpfw1ba3g');" d="M529,294L595,294"/></g><rect x="524" y="289" rx="4" width="76" height="10" class="djs-outline" style="fill: none;"/><path d="M529,294L595,294" class="djs-hit djs-hit-stroke" style="fill: none; stroke-opacity: 0; stroke: white; stroke-width: 15px;"/></g></g><g class="djs-group"><g class="djs-element djs-connection" data-element-id="Flow_pyme_2" style="display: block;"><g class="djs-visual"><defs><marker id="marker-b8no63s6e40pplfe0wd4uu12n" viewBox="0 0 20 20" refX="11" refY="10" markerWidth="10" markerHeight="10" orient="auto"><path d="M 1 5 L 11 10 L 1 15 Z" style="stroke-linecap: round; stroke-linejoin: round; stroke: rgb(203, 213, 225); stroke-width: 1px; fill: rgb(203, 213, 225);"/></marker></defs><path data-corner-radius="5" style="fill: none; stroke-linecap: round; stroke-linejoin: round; stroke: rgb(203, 213, 225); stroke-width: 2px; marker-end: url('#marker-b8no63s6e40pplfe0wd4uu12n');" d="M645,294L711,294"/></g><rect x="640" y="289" rx="4" width="76" height="10" class="djs-outline" style="fill: none;"/><path d="M645,294L711,294" class="djs-hit djs-hit-stroke" style="fill: none; stroke-opacity: 0; stroke: white; stroke-width: 15px;"/></g></g><g class="djs-group"><g class="djs-element djs-shape" data-element-id="Flow_pyme_2_label" style="display: block;" transform="matrix(1 0 0 1 653 274)"><g class="djs-visual"><text lineHeight="1.2" class="djs-label" style="font-family: 'JetBrains Mono', ui-monospace, Consolas, 'Courier New', monospace; font-size: 10px; font-weight: normal; fill: rgb(203, 213, 225);"><tspan x="0" y="9">Completos</tspan></text></g><rect class="djs-hit djs-hit-all" x="0" y="0" width="50" height="12" style="fill: none; stroke-opacity: 0; stroke: white; stroke-width: 15px;"/><rect x="-5" y="-5" rx="4" width="60" height="22" class="djs-outline" style="fill: none;"/></g></g><g class="djs-group"><g class="djs-element djs-connection" data-element-id="Flow_pyme_3" style="display: block;"><g class="djs-visual"><defs><marker id="marker-ezsljbhfcitibqhpt7zt29gh6" viewBox="0 0 20 20" refX="11" refY="10" markerWidth="10" markerHeight="10" orient="auto"><path d="M 1 5 L 11 10 L 1 15 Z" style="stroke-linecap: round; stroke-linejoin: round; stroke: rgb(203, 213, 225); stroke-width: 1px; fill: rgb(203, 213, 225);"/></marker></defs><path data-corner-radius="5" style="fill: none; stroke-linecap: round; stroke-linejoin: round; stroke: rgb(203, 213, 225); stroke-width: 2px; marker-end: url('#marker-ezsljbhfcitibqhpt7zt29gh6');" d="M620,319L620,401C620,403.5,622.5,406,625,406L711,406"/></g><rect x="615" y="314" rx="4" width="101" height="97" class="djs-outline" style="fill: none;"/><path d="M620,319L620,406L711,406" class="djs-hit djs-hit-stroke" style="fill: none; stroke-opacity: 0; stroke: white; stroke-width: 15px;"/></g></g><g class="djs-group"><g class="djs-element djs-shape" data-element-id="Flow_pyme_3_label" style="display: block;" transform="matrix(1 0 0 1 635 386)"><g class="djs-visual"><text lineHeight="1.2" class="djs-label" style="font-family: 'JetBrains Mono', ui-monospace, Consolas, 'Courier New', monospace; font-size: 10px; font-weight: normal; fill: rgb(203, 213, 225);"><tspan x="0" y="9">Incompletos</tspan></text></g><rect class="djs-hit djs-hit-all" x="0" y="0" width="61" height="12" style="fill: none; stroke-opacity: 0; stroke: white; stroke-width: 15px;"/><rect x="-5" y="-5" rx="4" width="71" height="22" class="djs-outline" style="fill: none;"/></g></g><g class="djs-group"><g class="djs-element djs-connection" data-element-id="Flow_pyme_4" style="display: block;"><g class="djs-visual"><defs><marker id="marker-0taw6pyt5stov9s0owsfm2x20" viewBox="0 0 20 20" refX="11" refY="10" markerWidth="10" markerHeight="10" orient="auto"><path d="M 1 5 L 11 10 L 1 15 Z" style="stroke-linecap: round; stroke-linejoin: round; stroke: rgb(203, 213, 225); stroke-width: 1px; fill: rgb(203, 213, 225);"/></marker></defs><path data-corner-radius="5" style="fill: none; stroke-linecap: round; stroke-linejoin: round; stroke: rgb(203, 213, 225); stroke-width: 2px; marker-end: url('#marker-0taw6pyt5stov9s0owsfm2x20');" d="M770,441L770,460C770,462.5,767.5,465,765,465L475,465C472.5,465,470,462.5,470,460L470,329"/></g><rect x="465" y="324" rx="4" width="310" height="146" class="djs-outline" style="fill: none;"/><path d="M770,441L770,465L470,465L470,329" class="djs-hit djs-hit-stroke" style="fill: none; stroke-opacity: 0; stroke: white; stroke-width: 15px;"/></g></g><g class="djs-group"><g class="djs-element djs-shape" data-element-id="Flow_pyme_4_label" style="display: block;" transform="matrix(1 0 0 1 576 445)"><g class="djs-visual"><text lineHeight="1.2" class="djs-label" style="font-family: 'JetBrains Mono', ui-monospace, Consolas, 'Courier New', monospace; font-size: 10px; font-weight: normal; fill: rgb(203, 213, 225);"><tspan x="0" y="9">Datos corregidos</tspan></text></g><rect class="djs-hit djs-hit-all" x="0" y="0" width="88" height="12" style="fill: none; stroke-opacity: 0; stroke: white; stroke-width: 15px;"/><rect x="-5" y="-5" rx="4" width="98" height="22" class="djs-outline" style="fill: none;"/></g></g><g class="djs-group"><g class="djs-element djs-connection" data-element-id="Flow_pyme_5" style="display: block;"><g class="djs-visual"><defs><marker id="marker-7uqvo9nakm8lripatwnkomz2v" viewBox="0 0 20 20" refX="11" refY="10" markerWidth="10" markerHeight="10" orient="auto"><path d="M 1 5 L 11 10 L 1 15 Z" style="stroke-linecap: round; stroke-linejoin: round; stroke: rgb(203, 213, 225); stroke-width: 1px; fill: rgb(203, 213, 225);"/></marker></defs><path data-corner-radius="5" style="fill: none; stroke-linecap: round; stroke-linejoin: round; stroke: rgb(203, 213, 225); stroke-width: 2px; marker-end: url('#marker-7uqvo9nakm8lripatwnkomz2v');" d="M829,294L1052,294"/></g><rect x="824" y="289" rx="4" width="233" height="10" class="djs-outline" style="fill: none;"/><path d="M829,294L1052,294" class="djs-hit djs-hit-stroke" style="fill: none; stroke-opacity: 0; stroke: white; stroke-width: 15px;"/></g></g><g class="djs-group"><g class="djs-element djs-connection" data-element-id="Flow_pyme_6" style="display: block;"><g class="djs-visual"><defs><marker id="marker-5y2gmu18aacwv104sc718u55b" viewBox="0 0 20 20" refX="11" refY="10" markerWidth="10" markerHeight="10" orient="auto"><path d="M 1 5 L 11 10 L 1 15 Z" style="stroke-linecap: round; stroke-linejoin: round; stroke: rgb(203, 213, 225); stroke-width: 1px; fill: rgb(203, 213, 225);"/></marker></defs><path data-corner-radius="5" style="fill: none; stroke-linecap: round; stroke-linejoin: round; stroke: rgb(203, 213, 225); stroke-width: 2px; marker-end: url('#marker-5y2gmu18aacwv104sc718u55b');" d="M1088,294L1202,294"/></g><rect x="1083" y="289" rx="4" width="124" height="10" class="djs-outline" style="fill: none;"/><path d="M1088,294L1202,294" class="djs-hit djs-hit-stroke" style="fill: none; stroke-opacity: 0; stroke: white; stroke-width: 15px;"/></g></g></g></g><g class="djs-group"><g class="djs-element djs-shape" data-element-id="Part_sis" style="display: block;" transform="matrix(1 0 0 1 20 540)"><g class="djs-visual"><rect x="0" y="0" width="1780" height="140" rx="0" ry="0" style="stroke-linecap: round; stroke-linejoin: round; stroke: rgb(51, 65, 85); stroke-width: 1.5px; fill: rgb(10, 16, 32); fill-opacity: 0.95;"/><path style="fill: none; stroke-linecap: round; stroke-linejoin: round; stroke: rgb(51, 65, 85); stroke-width: 1.5px;" d="M30,0L30,140"/><text lineHeight="1.2" class="djs-label" style="font-family: 'JetBrains Mono', ui-monospace, Consolas, 'Courier New', monospace; font-size: 11px; font-weight: normal; fill: rgb(51, 65, 85);" transform="matrix(-1.83697e-16 -1 1 -1.83697e-16 0 140)"><tspan x="21.6171875" y="18.3">TRAZZA / sistema</tspan></text></g><rect class="djs-hit djs-hit-all" x="0" y="0" width="1780" height="140" style="fill: none; stroke-opacity: 0; stroke: white; stroke-width: 15px;"/><rect x="-5" y="-5" rx="4" width="1790" height="150" class="djs-outline" style="fill: none;"/></g><g class="djs-children"><g class="djs-group"><g class="djs-element djs-shape" data-element-id="s_s" style="display: block;" transform="matrix(1 0 0 1 1202 592)"><g class="djs-visual"><circle cx="18" cy="18" r="18" style="stroke-linecap: round; stroke-linejoin: round; stroke: rgb(245, 165, 36); stroke-width: 2px; fill: rgb(43, 33, 20); fill-opacity: 0.95;"/><path d="m 8.459999999999999,11.34 l 0,12.6 l 18.900000000000002,0 l 0,-12.6 z l 9.450000000000001,5.4 l 9.450000000000001,-5.4" style="fill: rgb(43, 33, 20); stroke-linecap: round; stroke-linejoin: round; stroke: rgb(245, 165, 36); stroke-width: 1px;"/></g><rect class="djs-hit djs-hit-all" x="0" y="0" width="36" height="36" style="fill: none; stroke-opacity: 0; stroke: white; stroke-width: 15px;"/><circle cx="18" cy="18" r="23" class="djs-outline" style="fill: none;"/></g></g><g class="djs-group"><g class="djs-element djs-shape" data-element-id="s_s_label" style="display: block;" transform="matrix(1 0 0 1 1198 632)"><g class="djs-visual"><text lineHeight="1.2" class="djs-label" style="font-family: 'JetBrains Mono', ui-monospace, Consolas, 'Courier New', monospace; font-size: 10px; font-weight: normal; fill: rgb(245, 165, 36);"><tspan x="0" y="9">Contrato </tspan><tspan x="0" y="21">aceptado</tspan></text></g><rect class="djs-hit djs-hit-all" x="0" y="0" width="45" height="24" style="fill: none; stroke-opacity: 0; stroke: white; stroke-width: 15px;"/><rect x="-5" y="-5" rx="4" width="55" height="34" class="djs-outline" style="fill: none;"/></g></g><g class="djs-group"><g class="djs-element djs-shape" data-element-id="s_t1" style="display: block;" transform="matrix(1 0 0 1 1311 575)"><g class="djs-visual"><rect x="0" y="0" width="118" height="70" rx="10" ry="10" style="stroke-linecap: round; stroke-linejoin: round; stroke: rgb(245, 165, 36); stroke-width: 2px; fill: rgb(43, 33, 20); fill-opacity: 0.95;"/><text lineHeight="1.2" class="djs-label" style="font-family: 'JetBrains Mono', ui-monospace, Consolas, 'Courier New', monospace; font-size: 11px; font-weight: normal; fill: rgb(245, 165, 36);"><tspan x="31.78125" y="31.7">Registrar </tspan><tspan x="34.8046875" y="44.9">contrato</tspan></text></g><rect class="djs-hit djs-hit-all" x="0" y="0" width="118" height="70" style="fill: none; stroke-opacity: 0; stroke: white; stroke-width: 15px;"/><rect x="-5" y="-5" rx="14" width="128" height="80" class="djs-outline" style="fill: none;"/></g></g><g class="djs-group"><g class="djs-element djs-shape" data-element-id="s_t2" style="display: block;" transform="matrix(1 0 0 1 1461 575)"><g class="djs-visual"><rect x="0" y="0" width="118" height="70" rx="10" ry="10" style="stroke-linecap: round; stroke-linejoin: round; stroke: rgb(245, 165, 36); stroke-width: 2px; fill: rgb(43, 33, 20); fill-opacity: 0.95;"/><text lineHeight="1.2" class="djs-label" style="font-family: 'JetBrains Mono', ui-monospace, Consolas, 'Courier New', monospace; font-size: 11px; font-weight: normal; fill: rgb(245, 165, 36);"><tspan x="31.78125" y="25.1">Registrar </tspan><tspan x="19.6875" y="38.3">pasajeros del </tspan><tspan x="34.8046875" y="51.5">contrato</tspan></text></g><rect class="djs-hit djs-hit-all" x="0" y="0" width="118" height="70" style="fill: none; stroke-opacity: 0; stroke: white; stroke-width: 15px;"/><rect x="-5" y="-5" rx="14" width="128" height="80" class="djs-outline" style="fill: none;"/></g></g><g class="djs-group"><g class="djs-element djs-shape" data-element-id="s_e" style="display: block;" transform="matrix(1 0 0 1 1652 592)"><g class="djs-visual"><circle cx="18" cy="18" r="18" style="stroke-linecap: round; stroke-linejoin: round; stroke: rgb(245, 165, 36); stroke-width: 4px; fill: rgb(43, 33, 20); fill-opacity: 0.95;"/></g><rect class="djs-hit djs-hit-all" x="0" y="0" width="36" height="36" style="fill: none; stroke-opacity: 0; stroke: white; stroke-width: 15px;"/><circle cx="18" cy="18" r="24" class="djs-outline" style="fill: none;"/></g></g><g class="djs-group"><g class="djs-element djs-shape" data-element-id="s_e_label" style="display: block;" transform="matrix(1 0 0 1 1642 632)"><g class="djs-visual"><text lineHeight="1.2" class="djs-label" style="font-family: 'JetBrains Mono', ui-monospace, Consolas, 'Courier New', monospace; font-size: 10px; font-weight: normal; fill: rgb(245, 165, 36);"><tspan x="5.498046875" y="9">Contrato </tspan><tspan x="0" y="21">habilitado</tspan></text></g><rect class="djs-hit djs-hit-all" x="0" y="0" width="56" height="24" style="fill: none; stroke-opacity: 0; stroke: white; stroke-width: 15px;"/><rect x="-5" y="-5" rx="4" width="66" height="34" class="djs-outline" style="fill: none;"/></g></g><g class="djs-group"><g class="djs-element djs-connection" data-element-id="Flow_sis_0" style="display: block;"><g class="djs-visual"><defs><marker id="marker-2gmd60hifqfnt67sfgnjrggnu" viewBox="0 0 20 20" refX="11" refY="10" markerWidth="10" markerHeight="10" orient="auto"><path d="M 1 5 L 11 10 L 1 15 Z" style="stroke-linecap: round; stroke-linejoin: round; stroke: rgb(203, 213, 225); stroke-width: 1px; fill: rgb(203, 213, 225);"/></marker></defs><path data-corner-radius="5" style="fill: none; stroke-linecap: round; stroke-linejoin: round; stroke: rgb(203, 213, 225); stroke-width: 2px; marker-end: url('#marker-2gmd60hifqfnt67sfgnjrggnu');" d="M1238,610L1311,610"/></g><rect x="1233" y="605" rx="4" width="83" height="10" class="djs-outline" style="fill: none;"/><path d="M1238,610L1311,610" class="djs-hit djs-hit-stroke" style="fill: none; stroke-opacity: 0; stroke: white; stroke-width: 15px;"/></g></g><g class="djs-group"><g class="djs-element djs-connection" data-element-id="Flow_sis_1" style="display: block;"><g class="djs-visual"><defs><marker id="marker-9pxmxkgqjvxchsko1cdg4lolq" viewBox="0 0 20 20" refX="11" refY="10" markerWidth="10" markerHeight="10" orient="auto"><path d="M 1 5 L 11 10 L 1 15 Z" style="stroke-linecap: round; stroke-linejoin: round; stroke: rgb(203, 213, 225); stroke-width: 1px; fill: rgb(203, 213, 225);"/></marker></defs><path data-corner-radius="5" style="fill: none; stroke-linecap: round; stroke-linejoin: round; stroke: rgb(203, 213, 225); stroke-width: 2px; marker-end: url('#marker-9pxmxkgqjvxchsko1cdg4lolq');" d="M1429,610L1461,610"/></g><rect x="1424" y="605" rx="4" width="42" height="10" class="djs-outline" style="fill: none;"/><path d="M1429,610L1461,610" class="djs-hit djs-hit-stroke" style="fill: none; stroke-opacity: 0; stroke: white; stroke-width: 15px;"/></g></g><g class="djs-group"><g class="djs-element djs-connection" data-element-id="Flow_sis_2" style="display: block;"><g class="djs-visual"><defs><marker id="marker-dsdu136487rh75pllnxoo0u0w" viewBox="0 0 20 20" refX="11" refY="10" markerWidth="10" markerHeight="10" orient="auto"><path d="M 1 5 L 11 10 L 1 15 Z" style="stroke-linecap: round; stroke-linejoin: round; stroke: rgb(203, 213, 225); stroke-width: 1px; fill: rgb(203, 213, 225);"/></marker></defs><path data-corner-radius="5" style="fill: none; stroke-linecap: round; stroke-linejoin: round; stroke: rgb(203, 213, 225); stroke-width: 2px; marker-end: url('#marker-dsdu136487rh75pllnxoo0u0w');" d="M1579,610L1652,610"/></g><rect x="1574" y="605" rx="4" width="83" height="10" class="djs-outline" style="fill: none;"/><path d="M1579,610L1652,610" class="djs-hit djs-hit-stroke" style="fill: none; stroke-opacity: 0; stroke: white; stroke-width: 15px;"/></g></g></g></g><g class="djs-group"><g class="djs-element djs-connection" data-element-id="Msg_bpmn01-contratacion-y-pasajeros_0" style="display: block;"><g class="djs-visual"><defs><marker id="marker-6a2wh9j2nq5ldj9mz0tx4cpa4" viewBox="0 0 20 20" refX="8.5" refY="5" markerWidth="20" markerHeight="20" orient="auto"><path d="m 1 5 l 0 -3 l 7 3 l -7 3 z" style="stroke-linecap: round; stroke-linejoin: round; stroke: rgb(148, 163, 184); stroke-width: 1px; fill: white; stroke-dasharray: 10000, 1;"/></marker><marker id="marker-66iaws8rh4z2766u74rkgjeq5" viewBox="0 0 20 20" refX="6" refY="6" markerWidth="20" markerHeight="20" orient="auto"><circle cx="6" cy="6" r="3.5" style="stroke-linecap: round; stroke-linejoin: round; stroke: rgb(148, 163, 184); stroke-width: 1px; fill: white; stroke-dasharray: 10000, 1;"/></marker></defs><path data-corner-radius="5" style="fill: none; stroke-linecap: round; stroke-linejoin: round; stroke: rgb(148, 163, 184); stroke-width: 1.5px; marker-end: url('#marker-6a2wh9j2nq5ldj9mz0tx4cpa4'); marker-start: url('#marker-66iaws8rh4z2766u74rkgjeq5'); stroke-dasharray: 10, 11;" d="M320,125L320,276"/></g><rect x="315" y="120" rx="4" width="10" height="161" class="djs-outline" style="fill: none;"/><path d="M320,125L320,276" class="djs-hit djs-hit-stroke" style="fill: none; stroke-opacity: 0; stroke: white; stroke-width: 15px;"/></g></g><g class="djs-group"><g class="djs-element djs-shape" data-element-id="Msg_bpmn01-contratacion-y-pasajeros_0_label" style="display: block;" transform="matrix(1 0 0 1 332 193)"><g class="djs-visual"><text lineHeight="1.2" class="djs-label" style="font-family: 'JetBrains Mono', ui-monospace, Consolas, 'Courier New', monospace; font-size: 10px; font-weight: normal; fill: rgb(148, 163, 184);"><tspan x="0" y="9">Solicitud</tspan></text></g><rect class="djs-hit djs-hit-all" x="0" y="0" width="50" height="12" style="fill: none; stroke-opacity: 0; stroke: white; stroke-width: 15px;"/><rect x="-5" y="-5" rx="4" width="60" height="22" class="djs-outline" style="fill: none;"/></g></g><g class="djs-group"><g class="djs-element djs-connection" data-element-id="Msg_bpmn01-contratacion-y-pasajeros_1" style="display: block;"><g class="djs-visual"><defs><marker id="marker-8pdqwj7acwhvce438rt7677c6" viewBox="0 0 20 20" refX="8.5" refY="5" markerWidth="20" markerHeight="20" orient="auto"><path d="m 1 5 l 0 -3 l 7 3 l -7 3 z" style="stroke-linecap: round; stroke-linejoin: round; stroke: rgb(148, 163, 184); stroke-width: 1px; fill: white; stroke-dasharray: 10000, 1;"/></marker><marker id="marker-0qahs9bvr8d3w9agigrqv44u7" viewBox="0 0 20 20" refX="6" refY="6" markerWidth="20" markerHeight="20" orient="auto"><circle cx="6" cy="6" r="3.5" style="stroke-linecap: round; stroke-linejoin: round; stroke: rgb(148, 163, 184); stroke-width: 1px; fill: white; stroke-dasharray: 10000, 1;"/></marker></defs><path data-corner-radius="5" style="fill: none; stroke-linecap: round; stroke-linejoin: round; stroke: rgb(148, 163, 184); stroke-width: 1.5px; marker-end: url('#marker-8pdqwj7acwhvce438rt7677c6'); marker-start: url('#marker-0qahs9bvr8d3w9agigrqv44u7'); stroke-dasharray: 10, 11;" d="M770,259L770,108"/></g><rect x="765" y="103" rx="4" width="10" height="161" class="djs-outline" style="fill: none;"/><path d="M770,259L770,108" class="djs-hit djs-hit-stroke" style="fill: none; stroke-opacity: 0; stroke: white; stroke-width: 15px;"/></g></g><g class="djs-group"><g class="djs-element djs-shape" data-element-id="Msg_bpmn01-contratacion-y-pasajeros_1_label" style="display: block;" transform="matrix(1 0 0 1 783 176)"><g class="djs-visual"><text lineHeight="1.2" class="djs-label" style="font-family: 'JetBrains Mono', ui-monospace, Consolas, 'Courier New', monospace; font-size: 10px; font-weight: normal; fill: rgb(148, 163, 184);"><tspan x="0" y="9">Condiciones</tspan></text></g><rect class="djs-hit djs-hit-all" x="0" y="0" width="61" height="12" style="fill: none; stroke-opacity: 0; stroke: white; stroke-width: 15px;"/><rect x="-5" y="-5" rx="4" width="71" height="22" class="djs-outline" style="fill: none;"/></g></g><g class="djs-group"><g class="djs-element djs-connection" data-element-id="Msg_bpmn01-contratacion-y-pasajeros_2" style="display: block;"><g class="djs-visual"><defs><marker id="marker-a1xc0wrao81uww51t68wpdstz" viewBox="0 0 20 20" refX="8.5" refY="5" markerWidth="20" markerHeight="20" orient="auto"><path d="m 1 5 l 0 -3 l 7 3 l -7 3 z" style="stroke-linecap: round; stroke-linejoin: round; stroke: rgb(148, 163, 184); stroke-width: 1px; fill: white; stroke-dasharray: 10000, 1;"/></marker><marker id="marker-dd6btzpwjinpibru9dglt19tw" viewBox="0 0 20 20" refX="6" refY="6" markerWidth="20" markerHeight="20" orient="auto"><circle cx="6" cy="6" r="3.5" style="stroke-linecap: round; stroke-linejoin: round; stroke: rgb(148, 163, 184); stroke-width: 1px; fill: white; stroke-dasharray: 10000, 1;"/></marker></defs><path data-corner-radius="5" style="fill: none; stroke-linecap: round; stroke-linejoin: round; stroke: rgb(148, 163, 184); stroke-width: 1.5px; marker-end: url('#marker-a1xc0wrao81uww51t68wpdstz'); marker-start: url('#marker-dd6btzpwjinpibru9dglt19tw'); stroke-dasharray: 10, 11;" d="M1070,108L1070,276"/></g><rect x="1065" y="103" rx="4" width="10" height="178" class="djs-outline" style="fill: none;"/><path d="M1070,108L1070,276" class="djs-hit djs-hit-stroke" style="fill: none; stroke-opacity: 0; stroke: white; stroke-width: 15px;"/></g></g><g class="djs-group"><g class="djs-element djs-shape" data-element-id="Msg_bpmn01-contratacion-y-pasajeros_2_label" style="display: block;" transform="matrix(1 0 0 1 1083 184)"><g class="djs-visual"><text lineHeight="1.2" class="djs-label" style="font-family: 'JetBrains Mono', ui-monospace, Consolas, 'Courier New', monospace; font-size: 10px; font-weight: normal; fill: rgb(148, 163, 184);"><tspan x="0" y="9">Aceptación</tspan></text></g><rect class="djs-hit djs-hit-all" x="0" y="0" width="54" height="12" style="fill: none; stroke-opacity: 0; stroke: white; stroke-width: 15px;"/><rect x="-5" y="-5" rx="4" width="64" height="22" class="djs-outline" style="fill: none;"/></g></g><g class="djs-group"><g class="djs-element djs-connection" data-element-id="Msg_bpmn01-contratacion-y-pasajeros_3" style="display: block;"><g class="djs-visual"><defs><marker id="marker-7a5qy8zpbb3geojp2ts70ek62" viewBox="0 0 20 20" refX="8.5" refY="5" markerWidth="20" markerHeight="20" orient="auto"><path d="m 1 5 l 0 -3 l 7 3 l -7 3 z" style="stroke-linecap: round; stroke-linejoin: round; stroke: rgb(148, 163, 184); stroke-width: 1px; fill: white; stroke-dasharray: 10000, 1;"/></marker><marker id="marker-0fn97xb90gi8wug53tmz4obna" viewBox="0 0 20 20" refX="6" refY="6" markerWidth="20" markerHeight="20" orient="auto"><circle cx="6" cy="6" r="3.5" style="stroke-linecap: round; stroke-linejoin: round; stroke: rgb(148, 163, 184); stroke-width: 1px; fill: white; stroke-dasharray: 10000, 1;"/></marker></defs><path data-corner-radius="5" style="fill: none; stroke-linecap: round; stroke-linejoin: round; stroke: rgb(148, 163, 184); stroke-width: 1.5px; marker-end: url('#marker-7a5qy8zpbb3geojp2ts70ek62'); marker-start: url('#marker-0fn97xb90gi8wug53tmz4obna'); stroke-dasharray: 10, 11;" d="M1220,312L1220,592"/></g><rect x="1215" y="307" rx="4" width="10" height="290" class="djs-outline" style="fill: none;"/><path d="M1220,312L1220,592" class="djs-hit djs-hit-stroke" style="fill: none; stroke-opacity: 0; stroke: white; stroke-width: 15px;"/></g></g><g class="djs-group"><g class="djs-element djs-shape" data-element-id="Msg_bpmn01-contratacion-y-pasajeros_3_label" style="display: block;" transform="matrix(1 0 0 1 1234 444)"><g class="djs-visual"><text lineHeight="1.2" class="djs-label" style="font-family: 'JetBrains Mono', ui-monospace, Consolas, 'Courier New', monospace; font-size: 10px; font-weight: normal; fill: rgb(148, 163, 184);"><tspan x="0" y="9">Tras aceptación</tspan></text></g><rect class="djs-hit djs-hit-all" x="0" y="0" width="83" height="12" style="fill: none; stroke-opacity: 0; stroke: white; stroke-width: 15px;"/><rect x="-5" y="-5" rx="4" width="93" height="22" class="djs-outline" style="fill: none;"/></g></g></svg>